<svg xmlns="http://www.w3.org/2000/svg" width="238.537" height="39.523" viewBox="0 0 238.537 39.523">
  <g id="Logo_mindshape" data-name="Logo mindshape" transform="translate(0 43.053)">
    <path id="Pfad_1" data-name="Pfad 1" d="M-3.437-.365a1.691,1.691,0,0,1-1.7,1.783h-.044A1.676,1.676,0,0,1-6.785-.365a1.784,1.784,0,0,1,1.7-1.826A1.723,1.723,0,0,1-3.437-.365M12.129,5.114A7.846,7.846,0,0,0,4.955,9.331H4.868l-.13-3.739H2.781c.13,1.652.174,3.087.174,5v15.87H5.041V13.505A7.382,7.382,0,0,1,5.3,11.679a6.7,6.7,0,0,1,6.261-4.827c4.3,0,5.783,3.435,5.783,7.261V26.462h2.088V13.94c0-7.827-5.305-8.827-7.3-8.827M131.78,15.636c0,7.565-4.608,11.3-9.566,11.3a7.38,7.38,0,0,1-6.478-3.3h-.087V35.071h-3.782V12.288c0-2.7-.087-4.87-.174-6.87h3.435l.174,3.61h.087a8.273,8.273,0,0,1,7.479-4.088c5.087,0,8.913,4.3,8.913,10.7m-3.826.174c0-4.217-2.217-7.826-6.261-7.826a6.107,6.107,0,0,0-5.783,4.74,6.2,6.2,0,0,0-.261,1.565V17.9a8.6,8.6,0,0,0,.174,1.565,5.9,5.9,0,0,0,5.739,4.478c4.043,0,6.391-3.3,6.391-8.131M-6.132,26.462h2.087V5.591H-6.132ZM-19.783,5.114a7.2,7.2,0,0,0-4.957,1.7,8.181,8.181,0,0,0-2.13,2.827h-.087a6.382,6.382,0,0,0-6-4.522,7.292,7.292,0,0,0-6.783,4.13h-.087l-.13-3.652h-1.956c.13,1.652.174,3.087.174,5v15.87h2.088V13.592a7.482,7.482,0,0,1,.3-2.043c.783-2.435,3-4.7,5.783-4.7,3.391,0,5.174,2.783,5.174,6.522V26.462h2.087V13.07a7.489,7.489,0,0,1,.348-2.087,6.113,6.113,0,0,1,5.479-4.131c3.609,0,5.436,2.783,5.436,7.479V26.462h2.087V14.157c0-7.913-4.783-9.043-6.826-9.043m173.3,11.522H138.735c.087,5.175,3.392,7.3,7.218,7.3a13.834,13.834,0,0,0,5.826-1.087l.653,2.739a17.048,17.048,0,0,1-7,1.3c-6.478,0-10.348-4.261-10.348-10.609s3.739-11.348,9.87-11.348c6.87,0,8.7,6.044,8.7,9.914a14.494,14.494,0,0,1-.13,1.783M149.953,13.9c.043-2.435-1-6.218-5.3-6.218-3.87,0-5.566,3.566-5.87,6.218Zm-44.26,7.522a29.647,29.647,0,0,0,.348,5.044h-3.478l-.3-2.652h-.131a7.835,7.835,0,0,1-6.434,3.13c-4.261,0-6.435-3-6.435-6.043,0-5.088,4.522-7.87,12.653-7.827v-.434c0-1.74-.478-4.87-4.783-4.87a10.483,10.483,0,0,0-5.479,1.565L90.78,6.809a13.061,13.061,0,0,1,6.913-1.87c6.435,0,8,4.392,8,8.609Zm-3.7-5.7c-4.174-.087-8.913.652-8.913,4.739a3.386,3.386,0,0,0,3.609,3.653,5.237,5.237,0,0,0,5.088-3.522A3.994,3.994,0,0,0,102,19.375ZM77.346,4.939a7.873,7.873,0,0,0-3.913,1.088,7.1,7.1,0,0,0-2.739,2.7h-.087V-4.409H66.779V26.462h3.826v-12.7a4.627,4.627,0,0,1,.262-1.826A5.5,5.5,0,0,1,76,8.114c3.609,0,4.869,2.87,4.869,6.261V26.462h3.826V13.94c0-7.261-4.522-9-7.348-9m-21,9.3c-2.739-1.044-4-1.826-4-3.566,0-1.565,1.26-2.87,3.521-2.87a8.183,8.183,0,0,1,4.3,1.218l.957-2.783a10.5,10.5,0,0,0-5.174-1.3c-4.522,0-7.261,2.783-7.261,6.175,0,2.522,1.783,4.609,5.566,5.957,2.826,1.044,3.913,2.043,3.913,3.869,0,1.74-1.3,3.13-4.088,3.13a10.03,10.03,0,0,1-5.044-1.521l-.957,2.913A12.006,12.006,0,0,0,54,26.9c5,0,7.869-2.609,7.869-6.3,0-3.13-1.869-4.956-5.522-6.348M42.912,21.636c0,1.522.043,3.348.174,4.826h-1.87l-.174-3.957h-.087A7.907,7.907,0,0,1,33.52,26.94c-5.174,0-9-4.3-9-10.522-.044-6.957,4.26-11.3,9.391-11.3a7.366,7.366,0,0,1,6.826,3.7h.087V-4.452h2.088Zm-2.088-7.783a7.365,7.365,0,0,0-.218-1.913,6.686,6.686,0,0,0-6.566-5.088c-4.565,0-7.435,3.957-7.435,9.349,0,4.7,2.348,9,7.3,9a6.925,6.925,0,0,0,6.7-5.436,5.432,5.432,0,0,0,.218-1.739Z" transform="translate(84.888 -38.601)" fill="#fff"/>
    <path id="Pfad_2" data-name="Pfad 2" d="M-3.1-.083a.981.981,0,0,0-1.02-.935H-17.38A20.6,20.6,0,0,0-31.807,4.456a17.285,17.285,0,0,0-5.976,13.217v1.869a.863.863,0,0,0,.3.661,1.03,1.03,0,0,0,.722.274H-23.5c11.269,0,20.4-8.369,20.4-18.692Z" transform="translate(37.783 -32.543)" fill="#8bb31d"/>
  </g>
</svg>
