<?xml version="1.0" encoding="utf-8"?>
<!-- Generator: Adobe Illustrator 26.0.1, SVG Export Plug-In . SVG Version: 6.00 Build 0)  -->
<svg version="1.1" id="Ebene_1" xmlns="http://www.w3.org/2000/svg" xmlns:xlink="http://www.w3.org/1999/xlink" x="0px" y="0px"
     viewBox="0 0 631 168" style="enable-background:new 0 0 631 168;" xml:space="preserve">
<style type="text/css">
	.st0{fill:none;}
	.st1{fill:#fff;}
	.st2{fill-rule:evenodd;clip-rule:evenodd;fill:#8BB31D;}
</style>
    <g id="Ebene_2_00000034793300684457968600000005394571515855114391_">
	<g id="Logo">
		<g id="Logo_Regular_Screen">
			<rect id="Spacer" class="st0" width="631" height="168"/>
            <path id="mindshape" class="st1" d="M237.6,51.9c0.1,1.9-1.4,3.5-3.3,3.6c-0.1,0-0.1,0-0.2,0H234c-1.9-0.1-3.4-1.7-3.3-3.6v-0.1
				c0-2,1.5-3.6,3.5-3.7C236.2,48.3,237.7,49.9,237.6,51.9C237.7,51.9,237.7,51.9,237.6,51.9z M269.5,63.1
				c-6.1-0.2-11.8,3.2-14.7,8.6h-0.2l-0.3-7.7h-4c0.3,3.4,0.4,6.3,0.4,10.2v32.5h4.3V80.3c0-1.3,0.2-2.5,0.5-3.7
				c1.7-5.7,6.9-9.7,12.8-9.9c8.8,0,11.8,7,11.8,14.9v25.3h4.3V81.2C284.5,65.2,273.6,63.1,269.5,63.1z M514.4,84.7
				c0,15.5-9.4,23.1-19.6,23.1c-5.7,0-10.7-2.5-13.3-6.8h-0.2v23.4h-7.7V77.8c0-5.5-0.2-10-0.4-14.1h7l0.4,7.4h0.2
				c3.2-5.2,8.3-8.4,15.3-8.4C506.6,62.8,514.4,71.6,514.4,84.7z M506.6,85c0-8.6-4.5-16-12.8-16c-5.7,0.2-10.5,4.2-11.8,9.7
				c-0.3,1-0.5,2.1-0.5,3.2v7.4c0,1.1,0.1,2.1,0.4,3.2c1.3,5.4,6.2,9.2,11.8,9.2C501.8,101.7,506.6,94.9,506.6,85z M232.1,106.8h4.3
				V64.1h-4.3V106.8z M204.2,63.1c-3.7-0.2-7.3,1.1-10.2,3.5c-1.9,1.6-3.3,3.6-4.4,5.8h-0.2c-1.9-5.3-6.4-9.2-12.3-9.2
				c-7,0-11.1,3.6-13.9,8.4H163l-0.3-7.5h-4c0.3,3.4,0.4,6.3,0.4,10.2v32.5h4.3V80.5c0-1.4,0.2-2.8,0.6-4.2c1.6-5,6.1-9.6,11.8-9.6
				c6.9,0,10.6,5.7,10.6,13.3v26.8h4.3V79.4c0-1.5,0.3-2.9,0.7-4.3c1.7-4.4,5.9-8.4,11.2-8.4c7.4,0,11.1,5.7,11.1,15.3v24.8h4.3
				V81.6C218.2,65.4,208.4,63.1,204.2,63.1L204.2,63.1z M558.9,86.7h-30.3c0.2,10.6,6.9,15,14.8,15c4.1,0.1,8.2-0.6,11.9-2.2
				l1.3,5.6c-4.5,1.9-9.4,2.8-14.3,2.7c-13.3,0-21.2-8.7-21.2-21.7s7.7-23.2,20.2-23.2c14.1,0,17.8,12.4,17.8,20.3
				C559.2,84.3,559.1,85.5,558.9,86.7z M551.6,81.1c0.1-5-2-12.7-10.8-12.7c-7.9,0-11.4,7.3-12,12.7H551.6z M461,96.5
				c-0.1,3.5,0.2,6.9,0.7,10.3h-7.1l-0.6-5.4h-0.3c-3.1,4.1-8,6.5-13.2,6.4c-8.7,0-13.2-6.1-13.2-12.4c0-10.4,9.3-16.1,25.9-16v-0.9
				c0-3.6-1-10-9.8-10c-4,0-7.8,1.1-11.2,3.2l-1.8-5.2c4.3-2.6,9.2-3.9,14.1-3.8c13.2,0,16.4,9,16.4,17.6L461,96.5z M453.4,84.9
				c-8.5-0.2-18.2,1.3-18.2,9.7c0,5.1,3.4,7.5,7.4,7.5c4.7,0.1,8.9-2.8,10.4-7.2c0.3-0.8,0.4-1.6,0.5-2.5L453.4,84.9z M403,62.8
				c-2.8,0-5.6,0.8-8,2.2c-2.3,1.3-4.3,3.2-5.6,5.5h-0.2V43.6h-7.8v63.2h7.8v-26c-0.1-1.3,0.1-2.5,0.5-3.7c1.5-4.6,5.7-7.7,10.5-7.8
				c7.4,0,10,5.9,10,12.8v24.7h7.8V81.2C418,66.3,408.8,62.8,403,62.8z M360,81.8c-5.6-2.1-8.2-3.7-8.2-7.3c0-3.2,2.6-5.9,7.2-5.9
				c3.1,0,6.2,0.9,8.8,2.5l2-5.7c-3.2-1.8-6.9-2.7-10.6-2.7c-9.3,0-14.9,5.7-14.9,12.6c0,5.2,3.6,9.4,11.4,12.2c5.8,2.1,8,4.2,8,7.9
				c0,3.6-2.7,6.4-8.4,6.4c-3.7-0.1-7.2-1.2-10.3-3.1l-2,6c3.7,2,7.9,3,12.1,2.9c10.2,0,16.1-5.3,16.1-12.9
				C371.3,88.4,367.5,84.7,360,81.8L360,81.8z M332.5,97c0,3.1,0.1,6.8,0.4,9.9H329l-0.4-8.1h-0.2c-2.2,4.7-7.3,9.1-15.2,9.1
				c-10.6,0-18.4-8.8-18.4-21.5c-0.1-14.2,8.7-23.1,19.2-23.1c7.4,0,12.1,3.8,14,7.6h0.2V43.5h4.3V97z M328.2,81
				c0-1.3-0.1-2.6-0.5-3.9c-1.5-6.2-7.1-10.5-13.4-10.4c-9.3,0-15.2,8.1-15.2,19.1c0,9.6,4.8,18.4,15,18.4
				c6.6-0.1,12.3-4.7,13.7-11.1c0.3-1.2,0.5-2.4,0.5-3.6L328.2,81z"/>
            <path id="Blatt" class="st2" d="M141.9,64.9c-0.1-1.1-1-1.9-2.1-1.9h-27.2c-11.5,0-21.4,3.7-29.5,11.2
				c-8.2,7.5-12.2,16.5-12.2,27v3.8c0,0.5,0.2,1,0.6,1.3c0.4,0.4,0.9,0.6,1.5,0.6h27.2c23.1,0,41.8-17.1,41.8-38.3v-3.7H141.9z"/>
		</g>
	</g>
</g>
</svg>
