<?xml version="1.0" encoding="utf-8"?>
<!-- Generator: Adobe Illustrator 20.0.0, SVG Export Plug-In . SVG Version: 6.00 Build 0)  -->
<svg version="1.1" id="Layer_1" xmlns="http://www.w3.org/2000/svg" xmlns:xlink="http://www.w3.org/1999/xlink" x="0px" y="0px"
	 viewBox="0 0 156 156" style="enable-background:new 0 0 156 156;" xml:space="preserve">
<style type="text/css">
	.st0{fill:#669B41;}
	.st1{fill:#FFFFFF;}
	.st2{display:none;fill:#FFFFFF;}
</style>
<rect class="st0" width="156" height="156"/>
<path class="st1" d="M50.1,94.8H56l2.1-2c-7.3-8.5-11.7-19.5-11.7-31.4C46.4,34.6,68,13,94.7,13S143,34.6,143,61.3
	s-21.6,48.3-48.3,48.3c-12,0-23-4.4-31.4-11.7l-2,2.1v5.9L24.1,143L13,131.9L50.1,94.8z M94.7,94.8c18.5,0,33.5-14.9,33.5-33.5
	s-14.9-33.5-33.5-33.5S61.2,42.8,61.2,61.3S76.2,94.8,94.7,94.8z"/>
<path class="st1" d="M109.5,63.3c0.1-0.6,0.1-1.3,0.1-2s-0.1-1.3-0.1-1.9l4.2-3.3c0.4-0.3,0.5-0.8,0.2-1.3l-4-6.9
	c-0.2-0.4-0.8-0.6-1.2-0.4l-5,2c-1-0.8-2.2-1.5-3.4-2l-0.7-5.3c-0.1-0.5-0.5-0.8-1-0.8h-8c-0.5,0-0.9,0.4-1,0.8L89,47.5
	c-1.2,0.5-2.3,1.2-3.4,2l-5-2c-0.4-0.2-1,0-1.2,0.4l-4,6.9c-0.2,0.4-0.1,1,0.2,1.3l4.2,3.3c-0.1,0.6-0.1,1.3-0.1,1.9s0.1,1.3,0.1,2
	l-4.2,3.3c-0.4,0.3-0.5,0.8-0.2,1.3l4,6.9c0.2,0.4,0.8,0.6,1.2,0.4l5-2c1,0.8,2.2,1.5,3.4,2l0.7,5.3c0.1,0.5,0.5,0.8,1,0.8h8
	c0.5,0,0.9-0.4,1-0.8l0.7-5.3c1.2-0.5,2.3-1.2,3.4-2l5,2c0.4,0.2,1,0,1.2-0.4l4-6.9c0.2-0.4,0.1-1-0.2-1.3L109.5,63.3z M94.7,68.3
	c-3.9,0-7-3.1-7-7s3.1-7,7-7c3.9,0,7,3.1,7,7S98.5,68.3,94.7,68.3z"/>
<path class="st2" d="M94.7,46.3c-10,0-18.5,6.2-22,15c3.5,8.8,12,15,22,15s18.5-6.2,22-15C113.2,52.5,104.7,46.3,94.7,46.3z
	 M94.7,71.3c-5.5,0-10-4.5-10-10c0-5.5,4.5-10,10-10c5.5,0,10,4.5,10,10C104.7,66.8,100.2,71.3,94.7,71.3z M94.7,55.3
	c-3.3,0-6,2.7-6,6s2.7,6,6,6s6-2.7,6-6S98,55.3,94.7,55.3z"/>
</svg>
